<mxfile host="65bd71144e">
    <diagram name="PÃ¡gina-1" id="wmexFkZFV4C5G2_LSLB-">
        <mxGraphModel dx="792" dy="1705" grid="1" gridSize="10" guides="1" tooltips="1" connect="1" arrows="1" fold="1" page="1" pageScale="1" pageWidth="827" pageHeight="1169" background="#FFFFFF" math="0" shadow="0">
            <root>
                <mxCell id="0"/>
                <mxCell id="1" parent="0"/>
                <mxCell id="24jAjjag3Yym39tfX2p5-43" style="edgeStyle=orthogonalEdgeStyle;rounded=0;orthogonalLoop=1;jettySize=auto;html=1;exitX=0.75;exitY=0;exitDx=0;exitDy=0;endArrow=none;endFill=0;" parent="1" source="24jAjjag3Yym39tfX2p5-2" target="24jAjjag3Yym39tfX2p5-29" edge="1">
                    <mxGeometry relative="1" as="geometry"/>
                </mxCell>
                <mxCell id="24jAjjag3Yym39tfX2p5-46" style="edgeStyle=orthogonalEdgeStyle;rounded=0;orthogonalLoop=1;jettySize=auto;html=1;exitX=0.925;exitY=0.225;exitDx=0;exitDy=0;entryX=1;entryY=0.25;entryDx=0;entryDy=0;endArrow=none;endFill=0;exitPerimeter=0;" parent="1" source="24jAjjag3Yym39tfX2p5-77" target="24jAjjag3Yym39tfX2p5-36" edge="1">
                    <mxGeometry relative="1" as="geometry"/>
                </mxCell>
                <mxCell id="3gXsy__4mCIZVdKBy5lY-1" style="edgeStyle=orthogonalEdgeStyle;rounded=0;orthogonalLoop=1;jettySize=auto;html=1;exitX=1;exitY=0.75;exitDx=0;exitDy=0;entryX=0;entryY=0.5;entryDx=0;entryDy=0;endArrow=none;endFill=0;" parent="1" source="24jAjjag3Yym39tfX2p5-2" target="24jAjjag3Yym39tfX2p5-18" edge="1">
                    <mxGeometry relative="1" as="geometry"/>
                </mxCell>
                <mxCell id="24jAjjag3Yym39tfX2p5-2" value="Contrato" style="swimlane;whiteSpace=wrap;html=1;align=center;" parent="1" vertex="1">
                    <mxGeometry x="294" y="-873" width="200" height="140" as="geometry">
                        <mxRectangle x="290" y="50" width="90" height="30" as="alternateBounds"/>
                    </mxGeometry>
                </mxCell>
                <mxCell id="24jAjjag3Yym39tfX2p5-3" value="&lt;div style=&quot;text-align: justify;&quot;&gt;idContrato: int&lt;/div&gt;&lt;div style=&quot;text-align: justify;&quot;&gt;objetoContrato: str&lt;/div&gt;&lt;div style=&quot;text-align: justify;&quot;&gt;dataPublicacao: date&lt;/div&gt;&lt;div style=&quot;text-align: justify;&quot;&gt;dataCelebracaoContrato:&amp;nbsp; date&lt;/div&gt;&lt;div style=&quot;text-align: justify;&quot;&gt;precoContratual: float&lt;/div&gt;&lt;div style=&quot;text-align: justify;&quot;&gt;procedimentoCentralizado: bool&lt;span style=&quot;background-color: initial; color: rgba(0, 0, 0, 0); font-family: monospace; font-size: 0px; text-align: left; text-wrap-mode: nowrap;&quot;&gt;%3CmxGraphModel%3E%3Croot%3E%3CmxCell%20id%3D%220%22%2F%3E%3CmxCell%20id%3D%221%22%20parent%3D%220%22%2F%3E%3CmxCell%20id%3D%222%22%20value%3D%22Contrato%22%20style%3D%22swimlane%3BwhiteSpace%3Dwrap%3Bhtml%3D1%3B%22%20vertex%3D%221%22%20parent%3D%221%22%3E%3CmxGeometry%20x%3D%22290%22%20y%3D%2250%22%20width%3D%22200%22%20height%3D%22200%22%20as%3D%22geometry%22%3E%3CmxRectangle%20x%3D%22290%22%20y%3D%2250%22%20width%3D%2290%22%20height%3D%2230%22%20as%3D%22alternateBounds%22%2F%3E%3C%2FmxGeometry%3E%3C%2FmxCell%3E%3CmxCell%20id%3D%223%22%20value%3D%22%26lt%3Bdiv%20style%3D%26quot%3Btext-align%3A%20justify%3B%26quot%3B%26gt%3BidContrato%26lt%3B%2Fdiv%26gt%3B%26lt%3Bdiv%20style%3D%26quot%3Btext-align%3A%20justify%3B%26quot%3B%26gt%3BtipoContrato%26lt%3B%2Fdiv%26gt%3B%26lt%3Bdiv%20style%3D%26quot%3Btext-align%3A%20justify%3B%26quot%3B%26gt%3BdataPublicacao%26lt%3B%2Fdiv%26gt%3B%26lt%3Bdiv%20style%3D%26quot%3Btext-align%3A%20justify%3B%26quot%3B%26gt%3BprecoContratual%26lt%3B%2Fdiv%26gt%3B%26lt%3Bdiv%20style%3D%26quot%3Btext-align%3A%20justify%3B%26quot%3B%26gt%3Bcpv%26lt%3B%2Fdiv%26gt%3B%26lt%3Bdiv%20style%3D%26quot%3Btext-align%3A%20justify%3B%26quot%3B%26gt%3BprocedimentoCentralizado%26lt%3B%2Fdiv%26gt%3B%26lt%3Bdiv%20style%3D%26quot%3Btext-align%3A%20justify%3B%26quot%3B%26gt%3BdescrAcordoQuadro%26lt%3B%2Fdiv%26gt%3B%26lt%3Bdiv%20style%3D%26quot%3Btext-align%3A%20justify%3B%26quot%3B%26gt%3Bfundamentacao%26lt%3B%2Fdiv%26gt%3B%22%20style%3D%22whiteSpace%3Dwrap%3Bhtml%3D1%3Balign%3Dleft%3B%22%20vertex%3D%221%22%20parent%3D%222%22%3E%3CmxGeometry%20y%3D%2223%22%20width%3D%22200%22%20height%3D%22177%22%20as%3D%22geometry%22%2F%3E%3C%2FmxCell%3E%3C%2Froot%3E%3C%2FmxG&lt;/span&gt;&lt;/div&gt;&lt;div style=&quot;text-align: justify;&quot;&gt;&lt;span style=&quot;text-align: left;&quot;&gt;prazoExecucao: int&lt;/span&gt;&lt;/div&gt;" style="whiteSpace=wrap;html=1;align=left;" parent="24jAjjag3Yym39tfX2p5-2" vertex="1">
                    <mxGeometry y="24" width="200" height="116" as="geometry"/>
                </mxCell>
                <mxCell id="24jAjjag3Yym39tfX2p5-4" value="Entidade" style="swimlane;whiteSpace=wrap;html=1;align=center;" parent="1" vertex="1">
                    <mxGeometry x="294" y="-638" width="200" height="60" as="geometry"/>
                </mxCell>
                <mxCell id="24jAjjag3Yym39tfX2p5-6" value="nif: int&lt;div&gt;designacao: str&lt;/div&gt;" style="rounded=0;whiteSpace=wrap;html=1;align=left;" parent="24jAjjag3Yym39tfX2p5-4" vertex="1">
                    <mxGeometry y="23" width="200" height="37" as="geometry"/>
                </mxCell>
                <mxCell id="24jAjjag3Yym39tfX2p5-17" value="Municipio" style="swimlane;whiteSpace=wrap;html=1;" parent="1" vertex="1">
                    <mxGeometry x="580" y="-896" width="200" height="56" as="geometry"/>
                </mxCell>
                <mxCell id="24jAjjag3Yym39tfX2p5-18" value="&lt;div&gt;nome: str&lt;/div&gt;&lt;div&gt;codigo: int&lt;/div&gt;" style="rounded=0;whiteSpace=wrap;html=1;align=left;" parent="24jAjjag3Yym39tfX2p5-17" vertex="1">
                    <mxGeometry y="23" width="200" height="37" as="geometry"/>
                </mxCell>
                <mxCell id="24jAjjag3Yym39tfX2p5-19" style="edgeStyle=orthogonalEdgeStyle;rounded=0;orthogonalLoop=1;jettySize=auto;html=1;exitX=0.25;exitY=1;exitDx=0;exitDy=0;entryX=0.25;entryY=0;entryDx=0;entryDy=0;endArrow=none;endFill=0;" parent="1" source="24jAjjag3Yym39tfX2p5-3" target="24jAjjag3Yym39tfX2p5-4" edge="1">
                    <mxGeometry relative="1" as="geometry"/>
                </mxCell>
                <mxCell id="24jAjjag3Yym39tfX2p5-20" style="edgeStyle=orthogonalEdgeStyle;rounded=0;orthogonalLoop=1;jettySize=auto;html=1;exitX=0.75;exitY=1;exitDx=0;exitDy=0;entryX=0.75;entryY=0;entryDx=0;entryDy=0;endArrow=none;endFill=0;" parent="1" source="24jAjjag3Yym39tfX2p5-3" target="24jAjjag3Yym39tfX2p5-4" edge="1">
                    <mxGeometry relative="1" as="geometry"/>
                </mxCell>
                <mxCell id="24jAjjag3Yym39tfX2p5-21" value="adjudicante" style="text;html=1;align=center;verticalAlign=middle;whiteSpace=wrap;rounded=0;" parent="1" vertex="1">
                    <mxGeometry x="279" y="-693" width="60" height="30" as="geometry"/>
                </mxCell>
                <mxCell id="24jAjjag3Yym39tfX2p5-22" value="adjudicatarios" style="text;html=1;align=center;verticalAlign=middle;whiteSpace=wrap;rounded=0;" parent="1" vertex="1">
                    <mxGeometry x="454" y="-693" width="60" height="30" as="geometry"/>
                </mxCell>
                <mxCell id="24jAjjag3Yym39tfX2p5-28" value="Procedimento" style="swimlane;whiteSpace=wrap;html=1;" parent="1" vertex="1">
                    <mxGeometry x="444" y="-1033" width="210" height="50" as="geometry"/>
                </mxCell>
                <mxCell id="24jAjjag3Yym39tfX2p5-29" value="tipoProcedimento: str" style="whiteSpace=wrap;html=1;align=left;" parent="24jAjjag3Yym39tfX2p5-28" vertex="1">
                    <mxGeometry y="24" width="210" height="26" as="geometry"/>
                </mxCell>
                <mxCell id="24jAjjag3Yym39tfX2p5-30" value="TipoContrato" style="swimlane;whiteSpace=wrap;html=1;" parent="1" vertex="1">
                    <mxGeometry x="139" y="-1023" width="200" height="50" as="geometry">
                        <mxRectangle x="290" y="50" width="90" height="30" as="alternateBounds"/>
                    </mxGeometry>
                </mxCell>
                <mxCell id="24jAjjag3Yym39tfX2p5-31" value="tipoContrato: str" style="whiteSpace=wrap;html=1;align=left;" parent="24jAjjag3Yym39tfX2p5-30" vertex="1">
                    <mxGeometry y="23" width="200" height="27" as="geometry"/>
                </mxCell>
                <mxCell id="24jAjjag3Yym39tfX2p5-33" value="CPV" style="swimlane;whiteSpace=wrap;html=1;startSize=30;" parent="1" vertex="1">
                    <mxGeometry x="34" y="-933" width="200" height="60" as="geometry"/>
                </mxCell>
                <mxCell id="24jAjjag3Yym39tfX2p5-34" value="codigoCPV: str&lt;div&gt;descricao: str&lt;/div&gt;" style="whiteSpace=wrap;html=1;align=left;" parent="24jAjjag3Yym39tfX2p5-33" vertex="1">
                    <mxGeometry y="23" width="200" height="37" as="geometry"/>
                </mxCell>
                <mxCell id="24jAjjag3Yym39tfX2p5-35" value="Fundamentacao" style="swimlane;whiteSpace=wrap;html=1;startSize=30;align=center;" parent="1" vertex="1">
                    <mxGeometry x="2" y="-828" width="200" height="50" as="geometry"/>
                </mxCell>
                <mxCell id="24jAjjag3Yym39tfX2p5-36" value="fundamentacao: str" style="whiteSpace=wrap;html=1;align=left;" parent="24jAjjag3Yym39tfX2p5-35" vertex="1">
                    <mxGeometry y="23" width="200" height="27" as="geometry"/>
                </mxCell>
                <mxCell id="xRIgmgWvNkVK1j1N1y1u-18" style="edgeStyle=orthogonalEdgeStyle;rounded=0;orthogonalLoop=1;jettySize=auto;html=1;exitX=0.5;exitY=0;exitDx=0;exitDy=0;entryX=0.5;entryY=1;entryDx=0;entryDy=0;endArrow=none;endFill=0;" parent="1" source="24jAjjag3Yym39tfX2p5-38" target="xRIgmgWvNkVK1j1N1y1u-13" edge="1">
                    <mxGeometry relative="1" as="geometry">
                        <mxPoint x="124.27586206896558" y="-680" as="targetPoint"/>
                    </mxGeometry>
                </mxCell>
                <mxCell id="24jAjjag3Yym39tfX2p5-38" value="TiposAcordoQuadro" style="swimlane;whiteSpace=wrap;html=1;startSize=30;align=center;" parent="1" vertex="1">
                    <mxGeometry x="23" y="-638" width="200" height="50" as="geometry"/>
                </mxCell>
                <mxCell id="24jAjjag3Yym39tfX2p5-39" value="descricaoAcordoContrato: str" style="whiteSpace=wrap;html=1;align=left;" parent="24jAjjag3Yym39tfX2p5-38" vertex="1">
                    <mxGeometry y="23" width="200" height="27" as="geometry"/>
                </mxCell>
                <mxCell id="24jAjjag3Yym39tfX2p5-44" style="edgeStyle=orthogonalEdgeStyle;rounded=0;orthogonalLoop=1;jettySize=auto;html=1;exitX=0.25;exitY=0;exitDx=0;exitDy=0;entryX=0.75;entryY=1;entryDx=0;entryDy=0;endArrow=none;endFill=0;" parent="1" source="24jAjjag3Yym39tfX2p5-2" target="24jAjjag3Yym39tfX2p5-31" edge="1">
                    <mxGeometry relative="1" as="geometry"/>
                </mxCell>
                <mxCell id="24jAjjag3Yym39tfX2p5-47" style="edgeStyle=orthogonalEdgeStyle;rounded=0;orthogonalLoop=1;jettySize=auto;html=1;exitX=0;exitY=0;exitDx=0;exitDy=0;entryX=1;entryY=0.25;entryDx=0;entryDy=0;endArrow=none;endFill=0;" parent="1" source="24jAjjag3Yym39tfX2p5-3" target="24jAjjag3Yym39tfX2p5-34" edge="1">
                    <mxGeometry relative="1" as="geometry"/>
                </mxCell>
                <mxCell id="24jAjjag3Yym39tfX2p5-50" value="1..*" style="text;html=1;align=center;verticalAlign=middle;resizable=0;points=[];autosize=1;strokeColor=none;fillColor=none;" parent="1" vertex="1">
                    <mxGeometry x="334" y="-727" width="40" height="30" as="geometry"/>
                </mxCell>
                <mxCell id="24jAjjag3Yym39tfX2p5-52" value="1..*" style="text;html=1;align=center;verticalAlign=middle;resizable=0;points=[];autosize=1;strokeColor=none;fillColor=none;" parent="1" vertex="1">
                    <mxGeometry x="436" y="-730" width="40" height="30" as="geometry"/>
                </mxCell>
                <mxCell id="24jAjjag3Yym39tfX2p5-53" value="1" style="text;html=1;align=center;verticalAlign=middle;resizable=0;points=[];autosize=1;strokeColor=none;fillColor=none;" parent="1" vertex="1">
                    <mxGeometry x="335" y="-662" width="30" height="30" as="geometry"/>
                </mxCell>
                <mxCell id="24jAjjag3Yym39tfX2p5-54" value="1..*" style="text;html=1;align=center;verticalAlign=middle;resizable=0;points=[];autosize=1;strokeColor=none;fillColor=none;" parent="1" vertex="1">
                    <mxGeometry x="436" y="-662" width="40" height="30" as="geometry"/>
                </mxCell>
                <mxCell id="24jAjjag3Yym39tfX2p5-66" value="1" style="text;html=1;align=center;verticalAlign=middle;resizable=0;points=[];autosize=1;strokeColor=none;fillColor=none;" parent="1" vertex="1">
                    <mxGeometry x="539" y="-992" width="30" height="30" as="geometry"/>
                </mxCell>
                <mxCell id="24jAjjag3Yym39tfX2p5-67" value="1..*" style="text;html=1;align=center;verticalAlign=middle;resizable=0;points=[];autosize=1;strokeColor=none;fillColor=none;" parent="1" vertex="1">
                    <mxGeometry x="435" y="-896" width="40" height="30" as="geometry"/>
                </mxCell>
                <mxCell id="24jAjjag3Yym39tfX2p5-68" value="1" style="text;html=1;align=center;verticalAlign=middle;resizable=0;points=[];autosize=1;strokeColor=none;fillColor=none;" parent="1" vertex="1">
                    <mxGeometry x="278" y="-981" width="30" height="30" as="geometry"/>
                </mxCell>
                <mxCell id="24jAjjag3Yym39tfX2p5-69" value="1..*" style="text;html=1;align=center;verticalAlign=middle;resizable=0;points=[];autosize=1;strokeColor=none;fillColor=none;" parent="1" vertex="1">
                    <mxGeometry x="335" y="-895" width="40" height="30" as="geometry"/>
                </mxCell>
                <mxCell id="24jAjjag3Yym39tfX2p5-70" value="1" style="text;html=1;align=center;verticalAlign=middle;resizable=0;points=[];autosize=1;strokeColor=none;fillColor=none;" parent="1" vertex="1">
                    <mxGeometry x="224" y="-925" width="30" height="30" as="geometry"/>
                </mxCell>
                <mxCell id="24jAjjag3Yym39tfX2p5-72" value="1..*" style="text;html=1;align=center;verticalAlign=middle;resizable=0;points=[];autosize=1;strokeColor=none;fillColor=none;" parent="1" vertex="1">
                    <mxGeometry x="284" y="-896" width="40" height="30" as="geometry"/>
                </mxCell>
                <mxCell id="24jAjjag3Yym39tfX2p5-73" value="&lt;font color=&quot;#000000&quot;&gt;OBS: Acho que as multiplicidades estÃ£o erradas entÃ£o relevem&lt;/font&gt;" style="text;html=1;align=center;verticalAlign=middle;whiteSpace=wrap;rounded=0;fillColor=#f8cecc;strokeColor=#b85450;" parent="1" vertex="1">
                    <mxGeometry x="574" y="-1113" width="229" height="30" as="geometry"/>
                </mxCell>
                <mxCell id="24jAjjag3Yym39tfX2p5-77" value="1..*" style="text;html=1;align=center;verticalAlign=middle;resizable=0;points=[];autosize=1;strokeColor=none;fillColor=none;" parent="1" vertex="1">
                    <mxGeometry x="263" y="-805" width="40" height="30" as="geometry"/>
                </mxCell>
                <mxCell id="24jAjjag3Yym39tfX2p5-78" value="1" style="text;html=1;align=center;verticalAlign=middle;resizable=0;points=[];autosize=1;strokeColor=none;fillColor=none;" parent="1" vertex="1">
                    <mxGeometry x="193" y="-806" width="30" height="30" as="geometry"/>
                </mxCell>
                <mxCell id="24jAjjag3Yym39tfX2p5-79" value="&lt;font color=&quot;#000000&quot;&gt;Diagrama UML&lt;/font&gt;&lt;div style=&quot;font-size: 18px;&quot;&gt;&lt;font color=&quot;#000000&quot;&gt;Contratos pÃºblicos&lt;/font&gt;&lt;/div&gt;" style="text;html=1;align=center;verticalAlign=middle;resizable=0;points=[];autosize=1;strokeColor=#6c8ebf;fillColor=#dae8fc;fontStyle=1;fontSize=18;" parent="1" vertex="1">
                    <mxGeometry x="323" y="-1140" width="190" height="60" as="geometry"/>
                </mxCell>
                <mxCell id="xRIgmgWvNkVK1j1N1y1u-5" value="Distrito" style="swimlane;whiteSpace=wrap;html=1;" parent="1" vertex="1">
                    <mxGeometry x="580" y="-789" width="200" height="56" as="geometry"/>
                </mxCell>
                <mxCell id="xRIgmgWvNkVK1j1N1y1u-6" value="&lt;div&gt;nome: str&lt;/div&gt;&lt;div&gt;codigo: int&lt;/div&gt;" style="rounded=0;whiteSpace=wrap;html=1;align=left;" parent="xRIgmgWvNkVK1j1N1y1u-5" vertex="1">
                    <mxGeometry y="23" width="200" height="37" as="geometry"/>
                </mxCell>
                <mxCell id="xRIgmgWvNkVK1j1N1y1u-7" value="Pais" style="swimlane;whiteSpace=wrap;html=1;" parent="1" vertex="1">
                    <mxGeometry x="580" y="-688" width="200" height="56" as="geometry"/>
                </mxCell>
                <mxCell id="xRIgmgWvNkVK1j1N1y1u-8" value="&lt;div&gt;nome: str&lt;/div&gt;&lt;div&gt;codigo: int&lt;/div&gt;" style="rounded=0;whiteSpace=wrap;html=1;align=left;" parent="xRIgmgWvNkVK1j1N1y1u-7" vertex="1">
                    <mxGeometry y="23" width="200" height="37" as="geometry"/>
                </mxCell>
                <mxCell id="xRIgmgWvNkVK1j1N1y1u-9" style="edgeStyle=orthogonalEdgeStyle;rounded=0;orthogonalLoop=1;jettySize=auto;html=1;exitX=0.5;exitY=1;exitDx=0;exitDy=0;entryX=0.5;entryY=0;entryDx=0;entryDy=0;endArrow=none;endFill=0;" parent="1" source="24jAjjag3Yym39tfX2p5-18" target="xRIgmgWvNkVK1j1N1y1u-5" edge="1">
                    <mxGeometry relative="1" as="geometry"/>
                </mxCell>
                <mxCell id="xRIgmgWvNkVK1j1N1y1u-10" style="edgeStyle=orthogonalEdgeStyle;rounded=0;orthogonalLoop=1;jettySize=auto;html=1;exitX=0.5;exitY=1;exitDx=0;exitDy=0;entryX=0.5;entryY=0;entryDx=0;entryDy=0;endArrow=none;endFill=0;" parent="1" source="xRIgmgWvNkVK1j1N1y1u-6" target="xRIgmgWvNkVK1j1N1y1u-7" edge="1">
                    <mxGeometry relative="1" as="geometry"/>
                </mxCell>
                <mxCell id="xRIgmgWvNkVK1j1N1y1u-13" value="DescricaoAcordoQuadro" style="swimlane;whiteSpace=wrap;html=1;startSize=30;align=center;" parent="1" vertex="1">
                    <mxGeometry x="23" y="-740" width="200" height="50" as="geometry"/>
                </mxCell>
                <mxCell id="xRIgmgWvNkVK1j1N1y1u-14" value="" style="whiteSpace=wrap;html=1;align=left;" parent="xRIgmgWvNkVK1j1N1y1u-13" vertex="1">
                    <mxGeometry y="23" width="200" height="27" as="geometry"/>
                </mxCell>
                <mxCell id="xRIgmgWvNkVK1j1N1y1u-16" style="edgeStyle=orthogonalEdgeStyle;rounded=0;orthogonalLoop=1;jettySize=auto;html=1;exitX=1;exitY=0;exitDx=0;exitDy=0;entryX=0;entryY=0.75;entryDx=0;entryDy=0;endArrow=none;endFill=0;" parent="1" source="xRIgmgWvNkVK1j1N1y1u-14" target="24jAjjag3Yym39tfX2p5-3" edge="1">
                    <mxGeometry relative="1" as="geometry">
                        <Array as="points">
                            <mxPoint x="223" y="-710"/>
                            <mxPoint x="270" y="-710"/>
                            <mxPoint x="270" y="-762"/>
                        </Array>
                    </mxGeometry>
                </mxCell>
                <mxCell id="xRIgmgWvNkVK1j1N1y1u-20" value="No modelo relacional colocar com e sem modularizaÃ§Ã£o para ficar mais facil a visualizaÃ§Ã£o e a gente enbtrender a melhor opÃ§Ã£o" style="text;html=1;align=center;verticalAlign=middle;whiteSpace=wrap;rounded=0;fontColor=#FF0000;" parent="1" vertex="1">
                    <mxGeometry x="50" y="-540" width="300" height="60" as="geometry"/>
                </mxCell>
                <mxCell id="xRIgmgWvNkVK1j1N1y1u-21" value="Adicional multiplicidade onde nÃ£o tem" style="text;html=1;align=center;verticalAlign=middle;whiteSpace=wrap;rounded=0;fontColor=#FF0000;" parent="1" vertex="1">
                    <mxGeometry x="375" y="-540" width="300" height="60" as="geometry"/>
                </mxCell>
                <mxCell id="xRIgmgWvNkVK1j1N1y1u-22" value="Pesquisar: 3nf banco de dados" style="text;html=1;align=center;verticalAlign=middle;whiteSpace=wrap;rounded=0;fontColor=#FF0000;" parent="1" vertex="1">
                    <mxGeometry x="371" y="-458" width="300" height="60" as="geometry"/>
                </mxCell>
            </root>
        </mxGraphModel>
    </diagram>
</mxfile>